<svg xmlns="http://www.w3.org/2000/svg" xmlns:xlink="http://www.w3.org/1999/xlink" viewBox="0 0 492.75 167.87"><defs><style>.cls-1{fill:#f6f6f8;}.cls-2{fill:url(#Dégradé_sans_nom_8);}</style><linearGradient id="Dégradé_sans_nom_8" x1="383.56" y1="75.31" x2="383.56" y2="178.82" gradientUnits="userSpaceOnUse"><stop offset="0" stop-color="#6a82ec"/><stop offset="1" stop-color="#74ebd5"/></linearGradient></defs><title>logo iva blanc</title><g id="Calque_2" data-name="Calque 2"><g id="Calque_1-2" data-name="Calque 1"><path class="cls-1" d="M0,16.08C3.44,5.76,10.93.8,21.5.44,30.09.15,38.7.48,47.3.32c2.72,0,2.17,1.58,2.17,3.07q0,71.47,0,143c0,6.15-.14,12.29.07,18.43.09,2.5-.75,2.92-3,2.91-14.65-.1-29.31-.06-44,0"/><path class="cls-1" d="M81.43.38h17.8c10.31,0,20.61.07,30.91-.06a4.4,4.4,0,0,1,4.45,2.6Q163.47,53.3,192.47,103.6c.62,1.07,1.29,2.11,2.05,3.36,11.27-19.44,22.4-38.66,33.53-57.88C237,33.71,245.9,18.35,254.74,2.94A4.44,4.44,0,0,1,259.19.32c15.82.11,31.64.06,47.42.06.66,1.08-.2,1.7-.56,2.35Q261.32,84,216.57,165.3a3.84,3.84,0,0,1-3.89,2.39c-13.07-.1-26.13-.07-39.2,0-1.72,0-2.87-.29-3.79-2Q125.91,83.68,82,1.78C81.85,1.51,81.76,1.2,81.43.38Z"/><path class="cls-2" d="M469.43,167.69c-.51,0-52.67.09-67.88-.12-8.71.15-46.32,0-49.4.12-13.27.56-25.44-.35-38.7,0a51.48,51.48,0,0,1-20.56-3.32c-7.78-3.09-11-8.61-9.19-16.79,1.66-7.69,5.45-14.4,9.56-21,7.31-11.71,15.2-23,25.4-32.41,5.31-4.91,10.93-9.44,17.77-12.08,7.07-2.72,14.11-1,20.85,1.11a119.54,119.54,0,0,1,35.11,17.89c9.88,7.23,19.49,14.81,29.27,22.18,14.51,10.92,28.83,22.08,43.25,33.12,4.24,3.24,14.72,8.09,19,11.29C483.9,167.69,472,167.66,469.43,167.69Z"/><path class="cls-1" d="M492.18,161.2q-14.3-10.86-28.57-21.74c-21-16-41.81-32.23-63-48A126,126,0,0,0,356.7,69.92c-13.18-3.4-25.18-1.5-36.16,6.59-.7.51-1.31,1.48-2.81.9,1.14-1.91,2.21-3.77,3.34-5.6C331.76,54.41,341.76,36.6,353,19.52A53,53,0,0,1,367,5c9.79-6.81,19.65-6.42,29.39-.06a47.89,47.89,0,0,1,15.39,16.22q39.32,67.79,78.69,135.53c.78,1.34,1.52,2.69,2.27,4Z"/></g></g></svg>